<mxfile host="app.diagrams.net" modified="2023-09-11T17:11:56.868Z" agent="Mozilla/5.0 (Windows NT 10.0; Win64; x64) AppleWebKit/537.36 (KHTML, like Gecko) Chrome/116.0.0.0 Safari/537.36" etag="xr-HMGYQKgkDxXDk-IPp" version="21.1.8" type="device">
  <diagram name="Page-1" id="74b105a0-9070-1c63-61bc-23e55f88626e">
    <mxGraphModel dx="2734.5" dy="3119" grid="1" gridSize="10" guides="1" tooltips="1" connect="1" arrows="1" fold="1" page="1" pageScale="1.5" pageWidth="1169" pageHeight="826" background="none" math="0" shadow="0">
      <root>
        <mxCell id="0" style=";html=1;" />
        <mxCell id="1" style=";html=1;" parent="0" />
        <mxCell id="10b056a9c633e61c-30" value="MS - ShopNow" style="text;strokeColor=none;fillColor=none;html=1;fontSize=24;fontStyle=1;verticalAlign=middle;align=center;" parent="1" vertex="1">
          <mxGeometry x="-270" y="-40" width="1590" height="40" as="geometry" />
        </mxCell>
        <mxCell id="sAu4fY9SS1ZiHfCq4KFP-8" value="" style="swimlane;startSize=0;" vertex="1" parent="1">
          <mxGeometry x="-1070" y="-1080" width="580" height="400" as="geometry" />
        </mxCell>
        <mxCell id="sAu4fY9SS1ZiHfCq4KFP-24" style="edgeStyle=orthogonalEdgeStyle;rounded=0;orthogonalLoop=1;jettySize=auto;html=1;" edge="1" parent="sAu4fY9SS1ZiHfCq4KFP-8" source="sAu4fY9SS1ZiHfCq4KFP-7" target="sAu4fY9SS1ZiHfCq4KFP-9">
          <mxGeometry relative="1" as="geometry" />
        </mxCell>
        <mxCell id="sAu4fY9SS1ZiHfCq4KFP-44" style="edgeStyle=orthogonalEdgeStyle;rounded=0;orthogonalLoop=1;jettySize=auto;html=1;entryX=0;entryY=0.5;entryDx=0;entryDy=0;" edge="1" parent="sAu4fY9SS1ZiHfCq4KFP-8" source="sAu4fY9SS1ZiHfCq4KFP-7" target="sAu4fY9SS1ZiHfCq4KFP-34">
          <mxGeometry relative="1" as="geometry" />
        </mxCell>
        <mxCell id="sAu4fY9SS1ZiHfCq4KFP-79" style="edgeStyle=orthogonalEdgeStyle;rounded=0;orthogonalLoop=1;jettySize=auto;html=1;" edge="1" parent="sAu4fY9SS1ZiHfCq4KFP-8" source="sAu4fY9SS1ZiHfCq4KFP-7" target="sAu4fY9SS1ZiHfCq4KFP-78">
          <mxGeometry relative="1" as="geometry" />
        </mxCell>
        <mxCell id="sAu4fY9SS1ZiHfCq4KFP-7" value="" style="image;aspect=fixed;perimeter=ellipsePerimeter;html=1;align=center;shadow=0;dashed=0;fontColor=#4277BB;labelBackgroundColor=default;fontSize=12;spacingTop=3;image=img/lib/ibm/miscellaneous/microservices_application.svg;" vertex="1" parent="sAu4fY9SS1ZiHfCq4KFP-8">
          <mxGeometry x="140" y="58" width="60" height="60" as="geometry" />
        </mxCell>
        <mxCell id="sAu4fY9SS1ZiHfCq4KFP-25" style="edgeStyle=orthogonalEdgeStyle;rounded=0;orthogonalLoop=1;jettySize=auto;html=1;entryX=0.5;entryY=1;entryDx=0;entryDy=0;" edge="1" parent="sAu4fY9SS1ZiHfCq4KFP-8" source="sAu4fY9SS1ZiHfCq4KFP-31" target="sAu4fY9SS1ZiHfCq4KFP-7">
          <mxGeometry relative="1" as="geometry" />
        </mxCell>
        <mxCell id="sAu4fY9SS1ZiHfCq4KFP-26" style="edgeStyle=orthogonalEdgeStyle;rounded=0;orthogonalLoop=1;jettySize=auto;html=1;entryX=0.5;entryY=0;entryDx=0;entryDy=0;" edge="1" parent="sAu4fY9SS1ZiHfCq4KFP-8" source="sAu4fY9SS1ZiHfCq4KFP-28" target="sAu4fY9SS1ZiHfCq4KFP-10">
          <mxGeometry relative="1" as="geometry" />
        </mxCell>
        <mxCell id="sAu4fY9SS1ZiHfCq4KFP-45" style="edgeStyle=orthogonalEdgeStyle;rounded=0;orthogonalLoop=1;jettySize=auto;html=1;entryX=0;entryY=0.5;entryDx=0;entryDy=0;" edge="1" parent="sAu4fY9SS1ZiHfCq4KFP-8" source="sAu4fY9SS1ZiHfCq4KFP-9" target="sAu4fY9SS1ZiHfCq4KFP-34">
          <mxGeometry relative="1" as="geometry" />
        </mxCell>
        <mxCell id="sAu4fY9SS1ZiHfCq4KFP-88" style="edgeStyle=orthogonalEdgeStyle;rounded=0;orthogonalLoop=1;jettySize=auto;html=1;" edge="1" parent="sAu4fY9SS1ZiHfCq4KFP-8" source="sAu4fY9SS1ZiHfCq4KFP-9" target="sAu4fY9SS1ZiHfCq4KFP-80">
          <mxGeometry relative="1" as="geometry" />
        </mxCell>
        <mxCell id="sAu4fY9SS1ZiHfCq4KFP-9" value="" style="image;aspect=fixed;perimeter=ellipsePerimeter;html=1;align=center;shadow=0;dashed=0;fontColor=#4277BB;labelBackgroundColor=default;fontSize=12;spacingTop=3;image=img/lib/ibm/miscellaneous/microservices_application.svg;" vertex="1" parent="sAu4fY9SS1ZiHfCq4KFP-8">
          <mxGeometry x="140" y="176" width="60" height="60" as="geometry" />
        </mxCell>
        <mxCell id="sAu4fY9SS1ZiHfCq4KFP-27" style="edgeStyle=orthogonalEdgeStyle;rounded=0;orthogonalLoop=1;jettySize=auto;html=1;entryX=0.5;entryY=1;entryDx=0;entryDy=0;" edge="1" parent="sAu4fY9SS1ZiHfCq4KFP-8" source="sAu4fY9SS1ZiHfCq4KFP-28" target="sAu4fY9SS1ZiHfCq4KFP-9">
          <mxGeometry relative="1" as="geometry" />
        </mxCell>
        <mxCell id="sAu4fY9SS1ZiHfCq4KFP-46" style="edgeStyle=orthogonalEdgeStyle;rounded=0;orthogonalLoop=1;jettySize=auto;html=1;" edge="1" parent="sAu4fY9SS1ZiHfCq4KFP-8" source="sAu4fY9SS1ZiHfCq4KFP-10" target="sAu4fY9SS1ZiHfCq4KFP-34">
          <mxGeometry relative="1" as="geometry" />
        </mxCell>
        <mxCell id="sAu4fY9SS1ZiHfCq4KFP-89" style="edgeStyle=orthogonalEdgeStyle;rounded=0;orthogonalLoop=1;jettySize=auto;html=1;" edge="1" parent="sAu4fY9SS1ZiHfCq4KFP-8" source="sAu4fY9SS1ZiHfCq4KFP-10" target="sAu4fY9SS1ZiHfCq4KFP-87">
          <mxGeometry relative="1" as="geometry" />
        </mxCell>
        <mxCell id="sAu4fY9SS1ZiHfCq4KFP-10" value="" style="image;aspect=fixed;perimeter=ellipsePerimeter;html=1;align=center;shadow=0;dashed=0;fontColor=#4277BB;labelBackgroundColor=default;fontSize=12;spacingTop=3;image=img/lib/ibm/miscellaneous/microservices_application.svg;" vertex="1" parent="sAu4fY9SS1ZiHfCq4KFP-8">
          <mxGeometry x="140" y="308" width="60" height="60" as="geometry" />
        </mxCell>
        <mxCell id="sAu4fY9SS1ZiHfCq4KFP-29" value="" style="edgeStyle=orthogonalEdgeStyle;rounded=0;orthogonalLoop=1;jettySize=auto;html=1;entryX=0.5;entryY=1;entryDx=0;entryDy=0;" edge="1" parent="sAu4fY9SS1ZiHfCq4KFP-8" source="sAu4fY9SS1ZiHfCq4KFP-10" target="sAu4fY9SS1ZiHfCq4KFP-28">
          <mxGeometry relative="1" as="geometry">
            <mxPoint x="500" y="440" as="sourcePoint" />
            <mxPoint x="500" y="360" as="targetPoint" />
          </mxGeometry>
        </mxCell>
        <mxCell id="sAu4fY9SS1ZiHfCq4KFP-30" value="" style="edgeStyle=orthogonalEdgeStyle;rounded=0;orthogonalLoop=1;jettySize=auto;html=1;entryX=0.5;entryY=0;entryDx=0;entryDy=0;" edge="1" parent="sAu4fY9SS1ZiHfCq4KFP-8" source="sAu4fY9SS1ZiHfCq4KFP-9" target="sAu4fY9SS1ZiHfCq4KFP-28">
          <mxGeometry relative="1" as="geometry">
            <mxPoint x="500" y="378" as="sourcePoint" />
            <mxPoint x="500" y="440" as="targetPoint" />
          </mxGeometry>
        </mxCell>
        <mxCell id="sAu4fY9SS1ZiHfCq4KFP-28" value="" style="sketch=0;outlineConnect=0;fontColor=#232F3E;gradientColor=none;fillColor=#B0084D;strokeColor=none;dashed=0;verticalLabelPosition=bottom;verticalAlign=top;align=center;html=1;fontSize=12;fontStyle=0;aspect=fixed;pointerEvents=1;shape=mxgraph.aws4.mq_broker;" vertex="1" parent="sAu4fY9SS1ZiHfCq4KFP-8">
          <mxGeometry x="151" y="248" width="38" height="38" as="geometry" />
        </mxCell>
        <mxCell id="sAu4fY9SS1ZiHfCq4KFP-31" value="" style="sketch=0;outlineConnect=0;fontColor=#232F3E;gradientColor=none;fillColor=#B0084D;strokeColor=none;dashed=0;verticalLabelPosition=bottom;verticalAlign=top;align=center;html=1;fontSize=12;fontStyle=0;aspect=fixed;pointerEvents=1;shape=mxgraph.aws4.mq_broker;" vertex="1" parent="sAu4fY9SS1ZiHfCq4KFP-8">
          <mxGeometry x="151" y="128" width="38" height="38" as="geometry" />
        </mxCell>
        <mxCell id="sAu4fY9SS1ZiHfCq4KFP-32" value="" style="edgeStyle=orthogonalEdgeStyle;rounded=0;orthogonalLoop=1;jettySize=auto;html=1;entryX=0.5;entryY=1;entryDx=0;entryDy=0;" edge="1" parent="sAu4fY9SS1ZiHfCq4KFP-8" source="sAu4fY9SS1ZiHfCq4KFP-9" target="sAu4fY9SS1ZiHfCq4KFP-31">
          <mxGeometry relative="1" as="geometry">
            <mxPoint x="500" y="318" as="sourcePoint" />
            <mxPoint x="500" y="260" as="targetPoint" />
          </mxGeometry>
        </mxCell>
        <mxCell id="sAu4fY9SS1ZiHfCq4KFP-50" style="edgeStyle=orthogonalEdgeStyle;rounded=0;orthogonalLoop=1;jettySize=auto;html=1;" edge="1" parent="sAu4fY9SS1ZiHfCq4KFP-8" source="sAu4fY9SS1ZiHfCq4KFP-34">
          <mxGeometry relative="1" as="geometry">
            <mxPoint x="190" y="337.9999999999998" as="targetPoint" />
          </mxGeometry>
        </mxCell>
        <mxCell id="sAu4fY9SS1ZiHfCq4KFP-51" style="edgeStyle=orthogonalEdgeStyle;rounded=0;orthogonalLoop=1;jettySize=auto;html=1;" edge="1" parent="sAu4fY9SS1ZiHfCq4KFP-8" source="sAu4fY9SS1ZiHfCq4KFP-34" target="sAu4fY9SS1ZiHfCq4KFP-9">
          <mxGeometry relative="1" as="geometry" />
        </mxCell>
        <mxCell id="sAu4fY9SS1ZiHfCq4KFP-52" style="edgeStyle=orthogonalEdgeStyle;rounded=0;orthogonalLoop=1;jettySize=auto;html=1;entryX=1;entryY=0.5;entryDx=0;entryDy=0;" edge="1" parent="sAu4fY9SS1ZiHfCq4KFP-8" source="sAu4fY9SS1ZiHfCq4KFP-34" target="sAu4fY9SS1ZiHfCq4KFP-9">
          <mxGeometry relative="1" as="geometry" />
        </mxCell>
        <mxCell id="sAu4fY9SS1ZiHfCq4KFP-53" style="edgeStyle=orthogonalEdgeStyle;rounded=0;orthogonalLoop=1;jettySize=auto;html=1;entryX=1;entryY=0.5;entryDx=0;entryDy=0;" edge="1" parent="sAu4fY9SS1ZiHfCq4KFP-8" source="sAu4fY9SS1ZiHfCq4KFP-34" target="sAu4fY9SS1ZiHfCq4KFP-7">
          <mxGeometry relative="1" as="geometry" />
        </mxCell>
        <mxCell id="sAu4fY9SS1ZiHfCq4KFP-34" value="MS-Events" style="image;aspect=fixed;perimeter=ellipsePerimeter;html=1;align=center;shadow=0;dashed=0;fontColor=#4277BB;labelBackgroundColor=default;fontSize=12;spacingTop=3;image=img/lib/ibm/miscellaneous/microservices_application.svg;" vertex="1" parent="sAu4fY9SS1ZiHfCq4KFP-8">
          <mxGeometry x="495" y="308" width="60" height="60" as="geometry" />
        </mxCell>
        <mxCell id="sAu4fY9SS1ZiHfCq4KFP-36" value="{url}.system/logs" style="text;html=1;align=center;verticalAlign=middle;resizable=0;points=[];autosize=1;strokeColor=none;fillColor=none;" vertex="1" parent="sAu4fY9SS1ZiHfCq4KFP-8">
          <mxGeometry x="400" y="348" width="110" height="30" as="geometry" />
        </mxCell>
        <mxCell id="sAu4fY9SS1ZiHfCq4KFP-12" value="Authentication Service" style="image;aspect=fixed;perimeter=ellipsePerimeter;html=1;align=center;shadow=0;dashed=0;fontColor=#4277BB;labelBackgroundColor=default;fontSize=12;spacingTop=3;image=img/lib/ibm/miscellaneous/microservices_application.svg;" vertex="1" parent="sAu4fY9SS1ZiHfCq4KFP-8">
          <mxGeometry x="495" y="176" width="60" height="60" as="geometry" />
        </mxCell>
        <mxCell id="sAu4fY9SS1ZiHfCq4KFP-61" value="" style="endArrow=none;html=1;rounded=0;entryX=0;entryY=0.5;entryDx=0;entryDy=0;" edge="1" parent="sAu4fY9SS1ZiHfCq4KFP-8" target="sAu4fY9SS1ZiHfCq4KFP-12">
          <mxGeometry width="50" height="50" relative="1" as="geometry">
            <mxPoint x="350" y="206" as="sourcePoint" />
            <mxPoint x="420" y="181" as="targetPoint" />
          </mxGeometry>
        </mxCell>
        <mxCell id="sAu4fY9SS1ZiHfCq4KFP-67" value="MS-1" style="text;html=1;strokeColor=none;fillColor=none;align=center;verticalAlign=middle;whiteSpace=wrap;rounded=0;rotation=-90;" vertex="1" parent="sAu4fY9SS1ZiHfCq4KFP-8">
          <mxGeometry x="90" y="73" width="60" height="30" as="geometry" />
        </mxCell>
        <mxCell id="sAu4fY9SS1ZiHfCq4KFP-68" value="MS-2" style="text;html=1;strokeColor=none;fillColor=none;align=center;verticalAlign=middle;whiteSpace=wrap;rounded=0;rotation=-90;" vertex="1" parent="sAu4fY9SS1ZiHfCq4KFP-8">
          <mxGeometry x="90" y="191" width="60" height="30" as="geometry" />
        </mxCell>
        <mxCell id="sAu4fY9SS1ZiHfCq4KFP-69" value="MS-3" style="text;html=1;strokeColor=none;fillColor=none;align=center;verticalAlign=middle;whiteSpace=wrap;rounded=0;rotation=-90;" vertex="1" parent="sAu4fY9SS1ZiHfCq4KFP-8">
          <mxGeometry x="90" y="323" width="60" height="30" as="geometry" />
        </mxCell>
        <mxCell id="sAu4fY9SS1ZiHfCq4KFP-78" value="" style="shape=image;verticalLabelPosition=bottom;labelBackgroundColor=default;verticalAlign=top;aspect=fixed;imageAspect=0;image=data:image/png,iVBORw0KGgoAAAANSUhEUgAAAOEAAADhCAMAAAAJbSJIAAAAnFBMVEX///8zZ5Hv7+/u7u719fXy8vL5+fn8/PwxZpArYo4uZI8AUIMbWYgmX4wATIAGUIIUVobp7vJwjqtSd5rz9vjd5ewASX9HdJoXWIi4ydjK1+H6+feascRCbpXi6O3S3OTCz9ucq72Rp72kuMpykKxeg6Suvs2Dn7hYf6GNo7rR1tzH0Nm8y9gARX2GnLO2wc1/lK0AOXZif59zjakpVduOAAAgAElEQVR4nO19iXaruNIu2MxIRmAIGAw4nh17J/l3v/+73aoSYDxhnDi7e9911Ous06FNUZ+GmlQqKUrdtEHV9OZR/WRoNI+G9SOzfmI0j/6TpAbK82j9D+H/EP4P4f8Q/mcRDitSoWGETTNC829FODgnpSlZ5qeTRcD4SYtf19GzEQ6r1qJVP2rRqn6jHV/MskzT8addpLIwLKrmwxghJ5qmZYa/32xVmzFmO6fN5oznwSLy9Uzvy9WwjbBu+B3ZjKZ1PzKJSjRZLObUFov1JNUzInv1PXg+m76vYs6o2ep2vPrnc76YRMUi4AKwqTeawxPPCtamYpr3uDp/cnx0ZczNy2knx1z2ZJEuAvEy8oSQHCee57mjkacuNx+ln2V6m5SeheU8f/EYd2ocloUjZDMBbwm7BQeGreoEbh9RW7Y3Uvc+cDUcXuUKnhxnol4/as2xBxAOdHM4CVTg4Eqv47RKeL5cRKHRzBWl2Ixh1Kxbg1QPFROMq3G8WgXL+XSzWa3iXM5c+QNbqPPQ1G9w1V5rev3kSwgzMw2Yx2t2cSxsm5aP1WJWCHu59uVr5dJNnHooOE8ENRApVkPEZp5wlq/rstCy7MiVqYH0ed0mXjXKFhPvhfKjCIdaONuKCp4NOLiax9sVtO3vGDoZ+K6HyrFBRmzeinLJ5O9hOfH893Kzma4nk8Ni/vk7zmHUbCCjrjYHPTRNXddPptZwoOsghwbldGtLkBbjyyL7QYRKuaq+xL0XdTNLI5CJtLBNJSyi/Wy9zN2Rx6rxhGXGoROIM5cvYYE2tED0ZqFf7qe5tUkLYqtaYYM2QtlgWKMPZ1RRctbKTyE0w90L4eNe/j6jX9aKqtXxhn/YrWwYnOMSgxW0i/DH52zp+nGxNmwdHw1PuPKXnGHPOa4TGT+DMBrTF3iyagbjCi3QkllYvG1yXgkXR8Rr3wDteKfjoZlg0AyjcgLtUBY6WDWmph/FcrGzaRy5vTY7SX0R4Yxx6sFVeXyvlstthCTQdSWLFksBIknkByMb0BQ8IgQhkp2zFb3uPseq7boeiSLPdZm93S3KMMsaPP6O5qrjBV12yzVtodcNVLlsRvNI/q0shIOrIJ4pWv0I6Yd+UURgovihfHAkBSpaXwfqnCQINhzb4m2/nkJbfMyKIkTJWX9Q0xexy9siWbVQ+TB1PC2BdPVNkAQomNmqUK4zSqTqLzaPjlBvWW3m4gU+7bzswmqcNMUs1++fy7EKGpqzXM2D4H06KbU2KR2sTeCgngTvY85FZSOAHLa3nwuUMoPa1DIWLrumKBMRTH1iTacf4TAyx9cesdqObNVDfmrjKosXnP9OVA15Fh42zAVxwqs+JxsFLJuRm9cyU6vnCpIyZ0uUsSesW8C76+ZzmIdaxZa5Sfg1cwBMmqCE2UdcRTEj8ZVmg69Y3lcRajMBQPi2qB4V8/iqSSOVOmP5cq2bmX4ktR4n/IZNAz+Pp75ZS9UyFtd/yNkyMuQMMbaM5M0sexZCLUoQ4DiUD8JXT9y0kyVMLkbjeVpBNNPc6/y9LdxV2nxvd4s4E/OKA2U+wjXjzrLhcxCGW5g6PK5GMLWTOyam7PNfM43kmb9MuvuDuoRty5qxmXN1ppKcqztigSPt2Kn2FITZFCdFUimJafd4NE3M8ZPDLFJZnw5RuVhKLWsYxVjc+pG7riGSYEgi7QkINR/F6CjNkFa49XrhqwAOsrVn3/+xbOzXNCS2svDTu9Ur7riyNg7Ila0WV0ygRxGaSxhCtlQw9GAsk37c2nmIpLKZ6A0QmjeOJFvG/ObAc3VGM0uZ48xiwcMIL/XhDKaMHYe0pv/pCdDhpL+ywx2RdMH+aE1e7tCcjm5BdNgCEQ7NHc5l8XFE2KUPa6jHEJHZoEcx481ogUx7TlFVLEwkVfJHRlCyv63k5fqG1kAZujbQPjeXwJlth/r5rHvMLtXLBIeQuiW9JQDOGw80IpXfEIpdjY0rVhfuzW4Qa/KTQ3T/xSIbns3EGmG/KIYZAJeMpn7Yl2HH9ckhWF2xwe43fpTaNz9Ac0pRJtDlTu6fr7WHxlD3YcnbuZw3fRlmKEeHyseXAGLwoIK4vdmjMDepz2MYRFZbFl9DaE6hmwQpIfOGnXbRZK/qYU/FeQ2iVOyD8U2IfEXrZgHc8WUlRb+GUFtxsJBJBa37rkJYGfjm+xeHECEKGkUtsm5KKo96PRxhAPJbCAs0SD/lnOk5JFbi4yeivh1yrXHq1CHYCzd/oRJT4K44nq5/HaGGa9mb4IOy9yqc4rvm6gtytA0gRAWnzG/20y9iFb8yKrX7CBvN2EJIinKDFOjhtC9CHulgMJT9rNGbjcFCw52Rmx01oomM/HkHslPaUYyqtRAaN5oClp/D8D8rt5fEGcAVUXv/1hBC83ZIx/TdG4vDW5vAFfa7NzFv8X8E0rRzqw1sJ2AZ/vRHPTkTBxIBNy2S3o1JN+KWzmGg6YfmgqFkO5uID0UxwEfhUxCN2aSvwcZJ8C6+I2dkcxLpRdyYp2wOvOofYHGxXYWwFiaP+BYFjJyYGSj7e846/k6kx48apNdIBZKH69Y7e0eEKSDk30FYgm3IS/jTCHrqigcFb2eTE166SReNv4PI1kv+TYQwNy21gD99td+6skb03mtPL6u7OTZJCMO51rucxvApCMkGK+5t/1WtMmHtJ0xSlQzcm4v6SQhBGNsrfNZ32kmeegveO81JSKNdnUBsVyOs+qG3j3+CEKwmvszgnUlfhPubnf6Vxjayo6/QY+8g4nUMQDyI8GKWsg24+9pHT55tiorvvqvu6+aoFMIMr6j9BJUY6UNP6sMmKnHcnzOaR7esNg0RUg9N+iG0fyMpP/+2uq8bWyJBZXcpuaRz8Uo2TQ+rrYZ6ZnmjnheTakH2ackG50rxrCHEcEGowbS7Igbco106yU5n4gO+xcMIwVceDozZs5ahKicjBkQuhPMLsYo+spv28C2ehdCNFIwEPkXfWzY11UeuLtxvRxCbsFLVUfQHEXohOnVBM0sx/wdaT2Xa4p8LpuZxvI1jda0DV6F7RsK2iE3PASNDG/wxhBYYIcNBtq3yNYTLx8vX19flynLZA0Eb7jmvk9JUNBSKMr3KjM+mKXg8yKWLvWF+EyHJrEUvhE5uYhIMKGiL4yZiIROjTCMsN3bfqWslq5mU98OBTPJCrpZn0otRrDt1ce/iG3EaQjjFP/tpC3sLCPWIW4m7PfhtUppZBDcjvKc02KTWZ+1sk/MuFmRaYBwHXJAeCDv0ISez4q0XQj7HbJN0pE4L5ZgqIwMiA6XXLk2zk35ESFwtTsfQkqYAmhbkCt/VhzfSGND84kEGf/VEuMPd6nThI0Uihdmjdb6FMrkfu3HySJF5G4ZZZwsjKfNsljq5j9kX6NPxtKLflVByhHqSXkAGof0bbR/f6rXvu9DbOcI68Balk0Ozu3vNvjxtoxSNyWGmz95jyxXCtq04Aq6M4HT8od+BU59b9Wgq3/We/LyPLGRthJn/tltZmCzK1aXkIlzdocKXyJZuHuwXV43HNnMcOykR4ZnKZ3O0u3FmOb/PJvUXPWCzl4/PDlqDsHjNBeMW90au67lS52SzO9KGpWguK+8jNi/9MIzmHL4PamNIOxStNkoNQLJIyHL9DkLkiO1BNmm7PsKepfUYptsR5TOwZVqU5XqXjDAiMchuJztjI//Z0KaubVb5h6rl5MolQivBHAEyLcT6WwjRlRUfgDDr5fLVCIsVl4LBjk2QNfhky5Rma/pmw0mqGGG12TKkeI8dI1fhqRNsr8gxApvNcsNvIcRoIpvCu1raR5tJhOarqAWfEytV6LX4BfN0oO87Ecot6xm4bIWJCE0wrBG1NihOUxcYbv7o6HHYqvE9hNxR+Rbf7RWYkOtwfbQhLa/QqlQtb4eGReR0yWSPPKJpAspgH5phiVus6OZrWnkarqU9Qw2tABm9fAThqbbATUrHov3OW9H1kw+vEeGi5a7ylZERqSVbGcoA1lMXQkEiF1UfF+NgTFMhgXWmZae+haOiVif5ytb9EN46qoAeJtjueF4i7uHWJotMM073itk4BaVdroTq+Lgmz+3Lk+aVuBchg9xOFUMUb6ahne1BgaEGLIVoQPDIvOD9ylmMm3tPGu4ayF2ePt4F9jdYbSe/5Gy8jTG3V7wN5BS83cQbpqgEJ50gIrRLN6fPKFMBZy5I2pr1L0UxBnrabHIfegR52RWEzWgka0xknXXtf4g9yIHsVN7yArn6faLweYRwNrgMN8rlWntoDxiDSjLi2idiyl+vIaz/4xIRDrtkMnTC8EwxoUk1NMJxWwrYAWayk4oUb9/N89ag85wVqpw+ATTWhdAeK4AwvJVnSu9v4LNG2e4EZxyC6Dj9OKbQYDqSijtd30VowlSwbBJxwX1R0zmGjoofNOMOmUyKSTPam03QvRhrO/m2W6Daxclsf347Vz9Dd8All21+fyF2IoTVg2Q+OzrKyjGRyWxb2U5gnkcTOZoRimI5FDT99iwtXLJqFCm67iF870LIKEumMx7CSh0E4GvrJ1cQJlNE6GOC6Uv4/fMWOnOqqE+Pjes7CGdIpjOzik00QFh2I3QKHSwQmqR57xMlt/ShNBwc2jIz7+/rds9SaX50IuTvBiqxljMKCIdDM2p9muOTIUlX1GNGP33YtMv80jmXk2dozO+KGtyXBc/pBoZkjUcwOgPijmUCy2ZryduYrqQVLddChvP3uGZ4dJKr/6VMBXCC0fr90Krsoe8gBKsVbYhOvQrsg48fHX/jYL6p1tIWdk4ASN2vtGecRog4TR54Et0fwzmq4skNoQtzeHgPIXgSwJZ2jMo4MSJsOcBS7FE4P5maTzlvAbTgM/ir87jzJX8Up7m1m0oItUPnTLBUH2Sc1op2cFDGmtHYNJbMZkEqFvOfc6IEvFBLkMvd6RdIhOQf3pqlhPDObnKCu1cD5aj00aPSjta4lOsKJr+AyHkOQnT3vBlude/vaUQ2I4Rds/QeQlvFCE1r+0oi3NR/C1Kq5I+TG/wMhG8eLg/cxbu78ymjGLfGUK7DezsgcjfwKDwxqUbLav/QkUeT5pT+rA2eg9DHjPjfxoWFfw1DRAbjjY6QwZV7CO2ADmo0g4aS5ejjyxy2ECWCmFK46glVIyjcbJPmuRdS5GgSm5f7tRWvqA/Nu7tYyR4PPRe1BUVxmqwyGR1B3KO0tpxicGKjfL1qBMXiRWoahnk7ZZealSvwnnHLewCbBmi83kPIA8r2rHsTEGqGUrjNH1VEhS+Vp1WNwPQ93IEydK074EYB3eFND5CRMfJ6V6vK0whFFTzG5E9DCeURGjBiwPmIyOj2T2fit6pGeA6m0eJ5fKdTI4J7B6SK8w3pqlk28RTct25lnL5aieA4I0KatJzWKMXf+fj2Wnv8LDclU/uIsDsViHRVdsvLsnM8k22odxFaghxJX4ZW4TXgyqBUAJmT4CN0b/9MhGgsJws0GLtNLkJ4HrxtGttgnCa8ee6uRUcmlkqdKBFSaMDeGrWudOoDrc9BiDEEGS8IO4M13WPoHfCDaZ9cY3loxqTsBifHQ2KEEFQjngJA30ruvT8NobJyMOYFtLoDuoRwWFw3PC3LR1LLPntYtKCrQaxnqYNLrw7FObyz4sDjCHHRexEi7Dw4Y+PqH+rXTw/xT41CgL1Sa0a0Ekmxg+lSSRpYeiZOI7vJWXweQozvsR096jrl7EhtcV2WjEpEuO+XECZXYrZ26zGE5Qt2FXBFx2gcHnUivKIt7lSNwDxkUHb4R9c0teDDpn5d4NLrZp+QJDWB6Qe6AVIcpr4OGl+o7kwBrmhc2ecxt+I5VSNMVGKy37oDSTO0Sw/XfkJbA7rx0g+gymMDZw+4gZj9ibtrtmrijhi516x4uNbXEWE95Cc1FXTcoJHOtd+lztgOZ6KpXi5EJ0d1328nueoRqkETcNxTRN+CTTLwTND6wHDisyvSYZoTyBF6c9sB0VHDG/JSioaw6+XTZuchslUKFbpGMzdihWJArkJXe37NvQxnv3v/NIwo8b3iwgW2BL3bSxnWpKZ01ndFsbYwf6EDaqSP6YzM0xHitl8ip2nXPjXYLfibi3yEytR85MSelcuADOZwaKm7NGo2ZO73sxHSaQSbcnPMf7rYtGgTxzw/IJvI417duSZnjU2PbM1HhY6HktXGnHk6wpD2zMmY6jzjVeXvHE7TSWXQ/Dz77k6zRMOC+X8L5J8O3mLQ+CcQGtNGmho3qx1gk4v1bN89oXz/HtsCJ+2YC7TI8SBsVqILlayPXH0J4VV9WJ0/rDKPO7W2LaN9yqZt/DCCHT14ksZ2Kic3xCotw2G4os2Y8MjVA/qwhnqlakR9PiOuT9zqs86NRNDQOAWy+dFNslcYUDY3D01SVZYbwRcXstdmKL/EwWxz1To18tWqEU0JMowyc8wIvONCWaykd7XJSxPjXJDj2vP4W5tUSvnFB5nZiPauE4dDLE6JHJp+dn0mPlY1okGIEUwrp8HoThMFs5gCmUq4rGpfjcLemXHnpFCESkAyOdUrTMWPZtPAYr9eRi+jeOI3R7W+O4YyEfCAIc+ie6+U55EMRpvl0hbc5g4lVeVfOLHHgibqG5FTxjfB79xOsAIl8mBxkZf1KH4bIcb0+QrLa3U6GMiXaIpwhevXIKdsV//lK0Ukkk/sHSRVVZDg/MzisJND9vVc/ROEhkpJVpgy1y1rLH44KTNmYCdrayt3Hio4JAG9pHKPcHH6SSyahsVEVSx0Unz9zMwJQrLF2NREqXXFezg2F/N+WlpJkvJ9PzrEffL/WjhGq4MmJ3z8UpdRBmjuyFOD9X6/jlFg82X4JIQYaHMcfL3r+IUlplKWNgUyzZa0mzxSdYirqdKsw3T+z3Y7jrerz/l65teVatc4iiK6j/B2pkLbeUQHw5vBrL9+blU2ATbycDgw5yLf+OYFqaL/EWFHLbMTrsIw9MNwkGmafi7/hl+tGnFaeWFGJ1Qw2/G2D8Vo18Ew18KxmDuG/i6LNhGz7H0CalQnVnYUhaBDbWBN3uW9aZ0Vy8PckXk/Qz28UcSrDrbPpEWDRRS9XT0CRMq8ch70OikZF1b89OBrgwuu5JNsIhov5DtRjHqNoj2NQVGg/Hp1EO3qeEdroHgsDcl0HJMEGvQ9QysPTStT2xNsoSkmGt8ty4yqQw0x765BWDP6jbr6JohC66VEWuG1IyY89+Xx8l/Nf7Ttgh7NRo7zMkebUuuRIAfNkj0zJTUq3O1iX0Ygj4sy3a+XKx6XJEoolUimhz/n5gDa9QlgKIbmldiwzSkmqvhH88XmexNJlZhFawk6utEr7R+TZYhU1VdYz9zO81xl8C8eW8sqbWQHWKr/PIQFdWhJhs1lJa5kkuGMN5qUcMfjYIbrWDNAljhe4U5+1CtawwM6p3HSj5aFthofBX7ltdIOXL2H8RSEciVusf+08ypCllhnaH+GskybwwUfL3xaPHVJJQcPQ+rmjQ3GM4QbRPh2Pt5g6AZvxNVQ0+lLNjOfidBHGSnWNE8/T8dCkDdHpZ0c5v1Sg32kYx1aGMM6vMhzZCPrhZARwsPRmrWwOP2vfC4D+oNh5o+JbFUB5YtVIy4QUq69Y5NTY5yEzoTMKVd2I55s5xODTAt8ohvzqischkayrvVah8kOEYbzLfM8kQiP23kwPzRs6WAe4ectWS7mW2PY2ECylAqapGxJGSFRS3mzFa19bT3imyg8ktI1owloiDk65Fq/uiBiIi2zsIii8u2tLHzfqK8VMLGyN8XznLqE0herRpwqS9Kfcn9NRgelhJQAY/nmxM1LRW+ngczGTWZMdY6uH0JvJrk6Ybk+cBtOuVzsYt1YJF87bzEYXJSKp7iik0g1PpNl4FW2lQK7ZKzyuQmhWUziuny1lSzNRxC6xVld/QqhpoXRRpXTgjvl8++3GGgFlretTCozGr/Yjj2qdtUN8JyILzx4q6fTf5LjKbaXjaE/gNBy9SsIoUWLFZOrw0Kt8QMI5clNlJxISzMnq3GwNomWGTObTA09/fh03FaVAduLU6We8L0QOlS8YABmuzzAiBOiTNcrPqotYqFOjlw9EyG8F1AFX9Sz+nCQhaGWSVpgA/CSQkcL1RVUIx9UtGMzka9x8j6EMKfyDKq6DYLlMlgGv7cqO179YnG280+4eipCaaG487O43SahpBRyf7Ny8a5y18PLdYLXVDNbpHohlMULfNtyqqufTq55Ed4uOuPqmQjBnCEZyrZhVm2ZA0JpyjhCl3EhXVOq8/SGommVYkyXvRHKgw1XEq8xihHPi0uunolwAJ4CfozlE8WsApqzXCoFHkfZdVKZ/+mO+yO8crABjBox8sDL0DP9GlddCPvrw0rzlC66D7bnTPeFX6TzpClMDioqNCttcSQFy/VVMJkn02szXx5lxKwBLi8XcjnP/5mvI/AUB7e4qhFe0YddaQyXeRrwSPmQxe+hV1X0aBw5gRCmw+IFhg2MihbWhTeN9TihI8VApt+R4okBM2PBVL58e5tNJvu3ogCjpmH1KldfqBpxfQZjkDYr80psW3VBCWZPpEflgP2/nkUhnVXTfL+c7Dj9mM6m9SujKROq51zKbOz6HlxVj550d56mzXk7+4mzwM/CrXSpQEMk3Mm3q9U2h3+vrnyiU2c9EVJCNaYb4wl2rb4p6Q/fDpgVqxFodcdywBccbWeGNtTC3ctRONhYQ8lp1QyhY+G9EDpqCAhDx6YaR//e/YeKOdltYzXevi+KSoKZ/o6xK9saDkts3GJFhD28JzvO0JmGsRdv//YNjxSlbS1g0AbznCfMbjQ0WjUsD6LYkgWPtB5RDBsL3ypDGG33X0d4RkuK8WL9ulKF8Kgl+XKR0kFiGkPw8e8jxNJIQyVyMSfyP4lQwTvMiiJN07Isql8ZY6dC2GMM2QK0KO07i2cjvKItho/QatcYAq8gM7SGrd81wtH9uL6YIEIqKl88gavbVSNOHhmPPTonBQgdlY5L9JilSYk/xNwGVphP4Opxq61qV+yjm6QGY6cqBdhjDHHkFDyxZsmqgt/l6mHLu6FVP7m8tPCCVAgIPXpwf5tUhrHxXCVVHPg+V38EobayqzrK9xE6dEEOpn/QWe6/BiFXX8x+COV1DJgu+DchxFUlEd6/2kPul2FpXyyI/NcgXNYIr9bnPmkykC1zr7O/BiHmtY0oetR9PgybO8Pf7ahY2d+DMNskVbWA29fH1E32xLZKFnwGwj+hD7FMikR499BFpVVyW7VGvv4Mro7tobvVu3MCLkjNPFmYWrmbhmkxqnENDrYzejJXT7S8L0kVHhYDq8qSdLYq2vFCUYFncPUjvsUlqcFIXpRk3L0ai+/w5D5dPbH7mxCGwpLl/mf3EKLvNMgWXl1n8G9BaOTO8cqGboTpALNSWH084G9BaG5th2pWRnf0oWVhyVQs5+rIk0h/C0IlsNFTuJ8V5dCVGlQq7vM5XP0phAum2pisZfzuNtuwCgeMNGtObD83ivFz+hAPJoq3wUVlxIvmzbC8xBqzVsJncfWsSEXnewZ4Q94bVrfsVoiOg+8qAcNNxCdx9Zhd2l2f4aZdOhwYMCh0PqjojNRI1wnPabIP+sATuPojljcVKaoK/nedTLDkcdyZwDoT+pO4+jMIB1oqHE4r66MjAbPKuF1yefbhr0KI17MwWULn9iDaMq8U64fQ+ZW/CiFOU1umSX/cinvzX3KL/pOp1jh8Gld/DOHBVUeo4jDZ7TrAXALEMyujWfb3IVQ8xxkblFKnXtGJttgWGZFSbUyKfx5XX0f4gLYgUrsEU26AVFbk5+WGuRtPTJ1IgS507OKJXN2rGvFIfYZOUhgCdUSkwCNzsGRNvSXLZmy8OeBzXVPoTnGxeCZXR6g/arUBKWNr4/kESSpd/nIFY8xzR/k8berjmxvPUhlVQ34+Vz9reSuYTuU15WewzRbz+WJSZkrWPCpjQflW+h1Sj3D1p3wLqhf4yZrCBNgybHgkpnoSLjC5mY2pzuzfiBCrBmC9vJV/lVS4zlFRshxTqv9ShMOMTjFwvgiPpIYU2gyjlYOJRY74pJzxvxQhkJlhkrEjYsKYkfRUsmL9GQuSrQlK0V6k/qMI4aUZo/w3MWKr+frj47DYbMXIowQrh7k7rTrX+9ciBEJlLlP98PAeSxJWpY+BVrSXpdko7J9B+MP6ULYsnIuzg5aWwzy2WoePkurLVQ21o2pE3/oM/UiZxSYXTFZzocPL6nh58CkD8VFSvbhSLl98zMbtbZc2pLTM389V232BZuevsyLMMv0aKV3Psm6uhj24kgi10PejKEqjCE8o/4xv0SaFnY53slWkhldIaVq0/5hOJ2lknpICFqL94eNjlhZZJZgqrnxoN8ZQC7Z5btuw2u18vCk17acR0u2GXaQGxn7lgCxiQvDx3G+R0orp1hGCiYSpq4kpc6bonSLO83F2HWE24ng6Ahsu+7iqN/Eowpr6E5y6YulyFVkCNWm/7I6kjDUXtmXZHBey7cXSVaZ3Im7Z+S2EYE84MHzjcY6q1xFr83G2/GjuPwuhCU6yxVRgaGwJTvUwqViDNtwmlspZ/jv4PWZgIfFkaugNQspNvYZQB4RWnPp4rD/dCQ4Q9/qDbJlz1ePPQog2uiNeCzyyEc3GuVGRyoZ4Gs7dUs0Go5zjOHtzc3gXIY4hRRio4fkQh2uPIsQQ2rMQ7l3QI5FyQSrMAYSYNS9GeNDTm2bdCHHNE8LGDcWMK2+dDR/KCTBjhzLtTlXxF9MLAq7ydXZBCq+GsHnavKdpOJsdL9JaCM9I4RcxtO8iwjrQb+IFnct+5SSOjRA++M6NpmBSW3jxmAp+iUmLMU3BMm48oE2KDBHml2xLmISw6clwVF0PSUOiZdrx6tSjfaTQiVU5KKC85BjWnSsHSdOMo7tbPzuq8MHgOJgNKbTPQqwidEJKWm04tMGZ1YYFO5bnX7cAAAmLSURBVESEswBPSlXV4ZRLA5AQ1qtBVzxLLkv6A5ybIPh8X1cI60VUTj+Df96nES6sYjKZ5IBwBv8/OVTmcqbM5vDiDgWhD8+l2XKYTPBBNP8nKOUTE34HpHaTZo36Nl1fKREeucKzXi/lmeWN9yEzOml9jvB0ud9CODTL7QiPE9rMG+3CGuEwK1Q3wZI44oXjpaC/vAQP0GLy+kiVbGkT1wXr02YveanMf3n/59MR6d8vL0ssCJE4IqWTYcY0gd/ZNvfEwpQyJwOplSwuEL4KWcz3BCFWOJGVc3Q5S/sgxFkqCyUOzCmHjkHbAkyCJC5rg7F0YMLQY8c1AaFrU9FtvC6c09WaerZBHcsFY2BcF7CyXeJVC3APaurBQqMbHPRwJcBz4pwzx3I3oZS7G5DmVU26FkLATTfynCLEkZWk+iPE4mPy8LUxHVngka/TdIaXU9p4fzr+AqS2JYJDmh7eR0tlqL+tggCWjrMMgmCFF08OzWWiWiKfTiaLreC/N8wRJMczRBgJNfEcL9VgBMeJ6q0OYBOvQROIDRmaWplglb/1GULXkrWwTxHi7UIJXWPTe5bq/tjBA+NyBlhg32A8VynwxkdVFlFbywq42Hy8OkU3zbCRNCZd2eCBTTKXx3jXNlhYjpBHpgJur1aMz30D68sZG4G1pSQl+EBCN1wMzTUWMhRBaRzrIGAWkXWtuifoRPbaD+Gw6qslUzndyhMCJEplIlo+eOOyegLedsP8U1rhiSzFAi/e1KyOxmFdZ0sihDG0wJw8VEKrZDhbKqEScVk8Bbna4SFH7v1eD2q/EC+gqST8KUJg116afRBS/NL0yzipy9tPGUrnhhbmMzEMZhqBfURzDSGeC8YEtdoxX3JZ+UNmC1d3ceDJmBX0mt845juuutXWr5LmGJdzvNG0kGYKXhRuX0MIXNqBcX8dwiKaL9bT5dhGK4GWAJbkpIsXa08bBTPWQTSBTfbW0BpcIkQ9jBOuQjijK03xZ1jRrp7NINIERojB95b/4HXu1c4oTKBpjjXewP6WBSHxsnebSgGc1rI4Qdgaw0GDEJUi+hYWT7DOmw1ziO9N0qAjrJZY9QjGQHBMSQIt4GPWzNQurLZKORu/qvr+VakHsAOr8qCktT+NStHDxBMlHsXMNFMzM3+kimp5Y8mwcL0F01p1XmQRGkDojLULA9Cc11yR1VZbCJe+hVodDU/YeOFXnSaaC2mlY/6Gd9nSAgW55yTBITTAPT+xS5sJJT96vA6zhZAunaFxAubY/u3t8DHBfw5r1tTAQldJz4wIhLBqSd1ICMNzI35IYuO1QXjbt7DyabDdrpaHMqyiCpjYWxf0lbMap4FNU6MUdK1tPDXN4SVCTC2UNa6vIvQmNcJ39AJF3XDHzT4iJD6NN+z8EXZrWl0Ufo4QZKksTnvHP3Ti4xaXJG+CuKgLpEiEBQN3TP7MDxAjeKd78xpCVk23I0LnGsJPGCDWaknirk4Q4kUwoGqoWJJeXRR+5ohpuOZnPcaw5T21ELJThDiG9c9mKw7SzubVKJ8jTHZ9ENoWn09P2v4MoYEXaNoBCiLHxtqNw1OEeH+1JZkihOYDCGmWztsISzABm7uwzSyawjhaL8UlQtD3MrXwziz9BDNG1pQ9365tIfRp/QFCEMN4xu8UobHj9XVl92bpJcKDoM6raYGlkTTrBN1W3YxiXmdJnkgaUs7mkVRkq1cRgqTBgmvX0v6PCENhYQlzU0/xjrQ0O0Go43lhdriH8PoY4j2klnWsIkJ30h9rieMuXxZ5dQH1NsKB8mLJ+xSqy5P37DpCGGtcYt2BSV3IMRyGoJ/tbXiiLdBbr1VaRxRjeI6w6tGVXZWbJ82jF2jTNPdnUMfjFVasqBCqTh3FoLytZU1qgAkkJ+tQq/ShKTVu99ENVD3vSCo7uGqjMCVXOM/Ul1nWRnihD2n+k116nsaAN+FZTpHVGRGUbkYJF1qTJEEjR9kQWCGgqFaUkaLUnZmSFBWpBIRUwgEQuqlSF6AYc1QrF8kV5rFlPnQdjLqOwQF0WNisSdSANcop+UYyJa22G1UjWpZ3+8QtKHY+LkwZL5hivKAkW9/XNGlMwiy1qUjdQFvWaknBKxtADTuschrWZCnROWDKoJWnZ3CctBLsUq81KpUJumqqeCkhqDuHmzpx5cdoUk516SlnysG2ZflJMkhQXccnI3eMh5/7+HXDOpY8/wgNsMi3eNW6LAVlBOMD7m8YKViqoxlZrlhgCTD5PtYz0wbDHJV5vHh7W+RsNB1Xp9XpFFuDEFYZHmhOtjMM1YZ+Md1qxGoi8mVaYDHIKYWG9+ih4StFjD1nfRR+6EeHFXjNYlxHHhChlS8avbObb7QjQu86QiP9Bb0v8uD9N0MHeFeJAPDI1eD9c8VgZlYJWrBK0QlU85cFesBGoQqq6SgSexSE8XWEeObLg04UPB5vt6pIGFVjBtg287B0mgtfcH5RaVDJVTh2MSbP1TG+pbJfm1BpIZTxCNrvgP/9Okb8lRHn1xAOzHLlcctyOLKRp5KWdniBznO4jXGa92ou4E0+aOVYKJtgDLNwx8EO48xVPxSp8aX3xOyX9IhwoKxVdCFoz8RmI6yOrH+oAjfDsXKKxcVYFnqvuZrkZE1R2QZrFx5J6RGjKIpN9jX+26iFMN6Og2sIh1r4sbUTljC+XTe9FZabHKM0XF2VZuOJaYcYHnK+oNDDUDOLj+Vqu9n7rZoKA20zXuVthEMjXIwdomaPN3u5pv19kOM2OKzfVRpqp1yF64Bj52HN0GC+p0gn/SAaw0TYrsYraPhv43FrlpJ4uIIQe93008MkPUmC0RQjStNqZ6/xNTOlSNPSOJJqkp1KCnRSRx8ToBqdZ1bUwqNmpAQUeOQfN7SOXFHx+cmr5TEMASbx+zotqPdatKnVavcOQtyKbUeE6dGwvVhvZyrUYnkmyKKUY3aBsDvpoX7UnlmgGjRTLzdxwmzLBsd2JR3es338wTnCS21B9RlOdg9qtoa92GpFMZJ99eiLCC8zFWCgw3KRjzwQd4vqzT9ZNcI4PlLKF9Uehz9wrIPuHFwvbeYbt0n91CnZMpSkBrpR5s7JlX6PkurmStcMv+wi9UNZ0IZQp2jCZloxF/bxYs0fSAk4WaN/Ls+79BxQJnEc5xzdm/zRQnmPIfw3MtkXv8AosGyMdlvsV1BoXyf1H0WohNPfDsWXePxeKvp3SP1HEcI7fvS2/5gV6Ij8ZGrOv4dQ0jKeReo/ivC/QOr/f4T/D6HieSW7/1SbAAAAAElFTkSuQmCC;" vertex="1" parent="sAu4fY9SS1ZiHfCq4KFP-8">
          <mxGeometry x="427.5" y="60.5" width="55" height="55" as="geometry" />
        </mxCell>
        <mxCell id="sAu4fY9SS1ZiHfCq4KFP-80" value="" style="shape=image;verticalLabelPosition=bottom;labelBackgroundColor=default;verticalAlign=top;aspect=fixed;imageAspect=0;image=https://w7.pngwing.com/pngs/956/695/png-transparent-mongodb-original-wordmark-logo-icon-thumbnail.png;" vertex="1" parent="sAu4fY9SS1ZiHfCq4KFP-8">
          <mxGeometry x="375" y="123.5" width="52.5" height="52.5" as="geometry" />
        </mxCell>
        <mxCell id="sAu4fY9SS1ZiHfCq4KFP-87" value="" style="shape=image;verticalLabelPosition=bottom;labelBackgroundColor=default;verticalAlign=top;aspect=fixed;imageAspect=0;image=https://e7.pngegg.com/pngimages/148/984/png-clipart-apache-cassandra-apache-http-server-database-management-system-nosql-others-miscellaneous-cloud.png;" vertex="1" parent="sAu4fY9SS1ZiHfCq4KFP-8">
          <mxGeometry x="440" y="135.73000000000002" width="60" height="40.27" as="geometry" />
        </mxCell>
        <mxCell id="sAu4fY9SS1ZiHfCq4KFP-49" style="edgeStyle=orthogonalEdgeStyle;rounded=0;orthogonalLoop=1;jettySize=auto;html=1;entryX=1;entryY=0.5;entryDx=0;entryDy=0;exitX=0.5;exitY=1;exitDx=0;exitDy=0;" edge="1" parent="1" source="sAu4fY9SS1ZiHfCq4KFP-33" target="sAu4fY9SS1ZiHfCq4KFP-34">
          <mxGeometry relative="1" as="geometry" />
        </mxCell>
        <mxCell id="sAu4fY9SS1ZiHfCq4KFP-33" value="" style="shape=image;verticalLabelPosition=bottom;labelBackgroundColor=default;verticalAlign=top;aspect=fixed;imageAspect=0;image=https://w7.pngwing.com/pngs/956/695/png-transparent-mongodb-original-wordmark-logo-icon-thumbnail.png;" vertex="1" parent="1">
          <mxGeometry x="-461.12" y="-860" width="54.5" height="54.5" as="geometry" />
        </mxCell>
        <mxCell id="sAu4fY9SS1ZiHfCq4KFP-42" style="edgeStyle=orthogonalEdgeStyle;rounded=0;orthogonalLoop=1;jettySize=auto;html=1;" edge="1" parent="1" source="sAu4fY9SS1ZiHfCq4KFP-34" target="sAu4fY9SS1ZiHfCq4KFP-33">
          <mxGeometry relative="1" as="geometry" />
        </mxCell>
        <mxCell id="sAu4fY9SS1ZiHfCq4KFP-62" value="&lt;font style=&quot;font-size: 14px;&quot;&gt;&lt;font style=&quot;&quot; face=&quot;Verdana&quot;&gt;&lt;b&gt;2. RESTful API Design:&lt;/b&gt;&lt;br&gt;&lt;b&gt;•&lt;/b&gt; Create the API endpoints for each service with intuitive and meaningful resource&lt;br&gt;naming.&lt;br&gt;&lt;br&gt;Restful API, naming conventions&lt;br&gt;&lt;br&gt;&lt;b&gt;{url}/api/v1/{event}:&lt;/b&gt;&lt;br&gt;&lt;br&gt;&lt;i style=&quot;font-weight: bold;&quot;&gt;Example:&lt;/i&gt;&lt;br&gt;{url}/api/v1/products&lt;br&gt;{url}/api/v1/orders&lt;br&gt;&lt;br&gt;&lt;br&gt;&lt;b&gt;• Define clear request and response formats, following RESTful principles.&lt;/b&gt;&lt;br&gt;&lt;br&gt;Http Protocols:&lt;br&gt;* Rest *(Main)&lt;br&gt;* SOAP&lt;br&gt;&lt;br&gt;&lt;b&gt;Request&lt;/b&gt;&lt;br&gt;&lt;/font&gt;&lt;span style=&quot;font-weight: bold; border-color: var(--border-color); font-family: Verdana;&quot;&gt;{url}/api/v1/{event}&lt;/span&gt;&lt;br style=&quot;border-color: var(--border-color); font-family: Verdana;&quot;&gt;&lt;/font&gt;&lt;ul style=&quot;border-color: var(--border-color); font-family: Verdana;&quot;&gt;&lt;li style=&quot;border-color: var(--border-color);&quot;&gt;&lt;font size=&quot;3&quot; style=&quot;border-color: var(--border-color);&quot; face=&quot;Verdana&quot;&gt;&lt;b&gt;GET&lt;/b&gt;&lt;/font&gt;&lt;/li&gt;&lt;li style=&quot;border-color: var(--border-color);&quot;&gt;&lt;font size=&quot;3&quot; style=&quot;border-color: var(--border-color);&quot; face=&quot;Verdana&quot;&gt;&lt;b&gt;POST&lt;/b&gt;&lt;/font&gt;&lt;/li&gt;&lt;li style=&quot;border-color: var(--border-color);&quot;&gt;&lt;font size=&quot;3&quot; style=&quot;border-color: var(--border-color);&quot; face=&quot;Verdana&quot;&gt;&lt;b&gt;DELETE {/id}&lt;/b&gt;&lt;/font&gt;&lt;/li&gt;&lt;li style=&quot;border-color: var(--border-color);&quot;&gt;&lt;font size=&quot;3&quot; style=&quot;border-color: var(--border-color);&quot; face=&quot;Verdana&quot;&gt;&lt;b&gt;PUT&lt;/b&gt;&lt;/font&gt;&lt;/li&gt;&lt;li style=&quot;border-color: var(--border-color);&quot;&gt;&lt;font size=&quot;3&quot;&gt;&lt;b&gt;GET {/id}&lt;/b&gt;&lt;/font&gt;&lt;/li&gt;&lt;/ul&gt;&lt;div&gt;&lt;font size=&quot;3&quot; face=&quot;Verdana&quot;&gt;&lt;b&gt;Response:&lt;/b&gt;&lt;/font&gt;&lt;/div&gt;&lt;div&gt;&lt;ul&gt;&lt;li&gt;&lt;span style=&quot;font-family: Verdana; background-color: initial;&quot;&gt;&lt;font size=&quot;3&quot;&gt;&lt;b&gt;Status Code:&amp;nbsp;&lt;br&gt;&lt;i style=&quot;&quot;&gt;200 - OK&lt;br&gt;201 - Created&lt;br&gt;204 - No content&lt;br&gt;400 - Bad Request&lt;br&gt;401 - Unauthorized&lt;br&gt;403 - Forbidden&lt;br&gt;404 - Not found&lt;br&gt;500 - Internal server error&lt;/i&gt;&lt;/b&gt;&lt;/font&gt;&lt;/span&gt;&lt;/li&gt;&lt;/ul&gt;&lt;div&gt;&lt;font size=&quot;3&quot; style=&quot;&quot; face=&quot;Verdana&quot;&gt;&lt;span style=&quot;font-style: italic;&quot;&gt;Notes:&lt;/span&gt;&lt;br&gt;- Important to emphasize many of request should be authenticated.&lt;br&gt;- Following conventions, handle exception to allow trace and&amp;nbsp;&lt;span style=&quot;background-color: initial; border-color: var(--border-color);&quot;&gt;&lt;span style=&quot;border-color: var(--border-color);&quot;&gt;soon&amp;nbsp;&lt;/span&gt;&lt;/span&gt;&lt;span style=&quot;background-color: initial;&quot;&gt;diagnose in errors&lt;/span&gt;&lt;/font&gt;&lt;/div&gt;&lt;/div&gt;&lt;div&gt;&lt;font size=&quot;3&quot; style=&quot;&quot; face=&quot;Verdana&quot;&gt;&lt;span style=&quot;background-color: initial;&quot;&gt;&lt;b&gt;&lt;br&gt;&lt;/b&gt;&lt;/span&gt;&lt;/font&gt;&lt;/div&gt;&lt;font style=&quot;&quot; size=&quot;3&quot;&gt;&lt;font style=&quot;&quot; face=&quot;Verdana&quot;&gt;&lt;b&gt;3. Software Design Patterns:&lt;/b&gt;&lt;br&gt;&lt;b&gt;• Mention appropriate software design patterns to promote code reusability and maintainability.&lt;/b&gt;&lt;br&gt;&lt;br&gt;&lt;font style=&quot;&quot;&gt;&lt;b&gt;* Events Driven:&amp;nbsp;&lt;/b&gt;&lt;br&gt;Allow the system to be audit, handling replication, for maintaining&amp;nbsp;consistence and enable event-communications&lt;br&gt;&lt;br&gt;Tools:&lt;br&gt;* Apache Kafka&lt;br&gt;* Cloud streams&lt;/font&gt;&lt;br&gt;&lt;br&gt;&lt;font style=&quot;font-weight: bold;&quot;&gt;Pattern to apply internally (Publisher/Subscriber)&lt;/font&gt;&lt;br&gt;&lt;br&gt;&lt;/font&gt;&lt;b&gt;&lt;img alt=&quot;Publish-Subscribe Pattern: The Most Used Patterns in JavaScript | by Shuai  Li | Frontend Canteen | Medium&quot; src=&quot;data:image/jpeg;base64,/9j/4AAQSkZJRgABAQAAAQABAAD/2wCEAAoHCBUUFBcTFRUYFBUZGRkaHBgaGhgeGRodGhoaGB4aGSAaISwlHh0rHiMYJDYqKS4vMzMzHSI4PjszPS0yMy8BCwsLDw4PHRISHjIpIikyMjIyMjoyMjIyMjIyMj0yMjI0MjI0MjIyMjIyMjIyMjIyMjIyMjIvMjI0MjIyMjIyMv/AABEIAIwBaQMBIgACEQEDEQH/xAAbAAEAAgMBAQAAAAAAAAAAAAAABAUBAgMGB//EAEgQAAIBAgIECQcICAYDAQAAAAECAAMREiEEMUFRBRMiMmFxgZHwUpKhscHR0hQVI0JTcoLhBkNiY5Oy0/EzVHOUosKDo7Mk/8QAGAEBAQEBAQAAAAAAAAAAAAAAAAECAwT/xAAgEQEBAAICAwEBAQEAAAAAAAAAAQIREjEDIVETQWEy/9oADAMBAAIRAxEAPwD7NERAREQEREBERAREQEREBERAREQEREBOdR8IJOoAnIXOW4DXOkQKipw3SCg4uUSowHnAM4U3AvmM77iLGxnReGKR2neMjmoF8dteDptaTadFVGEKANwAA7pj5OlycK3JBJsMyNRO8iT2zqoB4ZphirXW1rAhixJBbDYA52tYbbi0saNQMoYXsQCLgg555g6pipSVgQwDAggggEEHWDfZM06aqAqgKBqAAAHYIm1m/wCuQ0tdz/w6g9azWrpeE6rjbrB7ARYjtEl2nF6CsQTc2ytibD2qDY9oj2e2mj6Wj3CsGItcbRe9rg5i9jJU5pTVclAUdAA9U6SkIiIUiIgIiICImIEPhCs6ICmG5YDlXIz6jIXyrSNppHqV9ewc6SuFmsqG9vpFz75Ftst42j3+nbY5Z5WX02XTKx+zsNZs1v5s5kaXV/YH4W1ed4z1AXlf850+NNEXZkAZ9QVFYEq7YyCVOYGANt1ZkdjpSB3RiBgRajMSMIDGoM+rAejVrhz55JQ0yr+781tur622Z+V1f3fmt8UiLp1IhCKtP6TFg5a8u2bBM+WbZm3eBr5UOFKbsgRw6sCRUQhksPJdeSzXyy1XGWqF5ZfViNKq/sbua2vcOV477a/LKu9Ojktn087V4F5CrcI0UuHq0kwkIwaogwFhcI1zyWIzsdm8zfRNKWqi1FDAG/OUqwsStipsV1HXY9WcJzyTtF0tzUCNhsyO1wCCCjItjcnyvRLKU+ij6ZP9Op/NS9H9t8uId8LuMxEQ0REQEREBERAREQEREBERAREQEREBMTMQKitpOk3OGkCLm2YuQC1r5jDey552vmNk4NSrspUliceZOFVKlw1lscVsPTttnsvYmbjt0nk1/IreDq1QlkZbYMr3viJJIz+7hJuAbt32DHLIXmqoBcgAEm56TYC56bADsnSWTUYtlu0YV2+yfvp/FI+laSwzAYHyTgN+oBgSeo9ksZi0ln+rLJUbQ67OLtTamdxKm/SLG47bSVESxm1mIiUIiIGIicatUKM9ZyAGsncIG7sACSbAZ3OoSt0mkznJnAY5C+HrNlAOEDyjmbDK9zKK5Y6lgozC3yW2onefQMrarnW7VNV0TfqduryR6eqSzbUy4312jcIUAlOki5BaiAbTYXG3b7ZpYHIavXn/AC37zv2zdI0S9MKllwkEDO2RzGW/Pvkb5JV2FO5urYRqGQ9mcrh5Mbldq3TeCKVVrvjbNrA1HshamabFc+SShNwCANeRzHA/o7o4fjLM1TXiZ2Y62YMS1zrdrAW51rWsBbHQ69rYqVt2Fuzb2++aDQtJ146V/u1O/neLkwxxyU6fo5TVSvG1TcFDc0h9Ha3FALTCog5R5AUriOeySeEOAaNY4qikkqF1kXUBgeq4Yi+TasxYSw+RaRrxUegYH7+dMjQq+d2pH8D/ABej1wcMlVoXAqU3xqSTiYjkqDdsZu5UXc8t7E+WTmzYjY6PQWmoReaMR17yWJN/q37+wCdRoVba1M/hfPfflbdvd17nRKtsihPTiAvsOXo3W7icMr200Y/TqN9Oof8AlS8e4WlxKnRNBqCsKrstlSogC4s8bUzc31WwemW0O2E1GYiIbIiICIiAiIgIiICIiAiIgIiICIiAiIgIiICIiAiIgIiICIiBiIkQ1C/MNl2t8N9fWcuvZNrI3qVc8KjE3oXpY7OrWe8jkzBDteqRqGu3qVfdtM1puWGGlku2oc778N+cf2jl1yRQoKosNuZJzJO8naYS3+Rzp6OSQzkMwzAHNXqG09J7LSXESjMREBERAREQEREBERAxEhvwggYpyyy2vhp1GAuLgXVSL2tt2zVuFEGyr2Uax9SSbhpOiV3zxT8mt/t9I/pzPzrT3Vf4Nf4I5RdLCJX/ADvT3Vv4Ff4JqOGaZ2Vv9vpA9dOOUNLKJDXhFDsqdtKqPWsNwig8v+FVPqWTlPpqpsSPo+kK64luRcjMFTdSVIIYAjMEZyRNIxET4+Xemee7L5WN8S/ezzHTs27SLJtLX2CJ8nbSGAuXa3SxPrnfgFnbSqDMTbHku4YWzP7Ry6u+7Rt9SiIkUiIgYiLyK+n0gbGqgO4st/XBpKiQzwjT3lhvVWYd6giYOnjYrHsA/mIMlsnbXHL4mxK6pptT6tMfiex/4q2c1+V1fJRujEygduE37hHKfV4ZLOJXDT2Fg1Js/JZCMvvFT6JuvCVPbiX7yOAOskW9MvfSXG/E+JHo6VTfmVEf7rA+ozvDJOVSoFFybeMgOnomtWrawAJJ1AesnYOn22Er1rFmuMLNeyk5Il8u1jnkMyDnYGwlp6nupFZri9S4XUEGbP0MBr6hlv3DcUGfOpkuymNX4z9bq1dc6UNGCnESWY62OvqG4dAkiNFuyZiJQiIgYictIrYUZyCQqlrDWbC9h0yEeEyP1T5ftU/ihLlJ2solZ85t9jU86l8ffumPnVvsKnnUvjhOeP1aRKv51a1+IqW+9R/qQOFG+wqedR7v8TZt3Qc8fq0iVnzqfsKuzbR2/wDkmfnP91UGzXS/qemDnj9WUSvbhIAqCjjEyrc4MsRsCbN+csLwssqoRfpq3Sy//NBOtasqIzscKqpZidgUXJPUL+NXKifpa/8AqIP/AFUzb0+NR58M0HfR61OkQKj0qiIxNgHZCq52OQNtntnly/6rvj030PS6dZcdKolVD9ZGDKSNlwdn5mdBXUuUB5ahGK55BywU7jcq/dsveVLcEGlarQJetemrcY+HHTQnkEqhVbXuDhOoi+ZMh6NoGniuKr1KdmK4wpUphWrVYpY0g5PFMqqQ62N8WKxLYuMk7Pa94O01a1JKy82oiOAbXAdVcBrEi9iOvpFryr7s8z37e30zxz8DaTSoUVQMWprRBSiyoHNOjTpkVTjpM6hlOE8YMjzWAwiQ+i6elN3RlRnLniaeBjTFSzs6vUAD1Q2MAEqhut885eP+j1APj29Xgb4Wed4J0CsxTjKlYrTBKtd6Zd2csSULuzoFwqBULHnG2oz0dvHsHjv1zNjUpwMtqZF7/S1z31qhk+RODByPx1fTUYzc0nvz7DcFHtntx6jhe0ifKhotTaufWPfPpp0d/tXHUKftSFoN9q57KfsSal0zZt8vXg5gbhTvtcWB3geNssOCKFRa9JsB/wARe4mxOW4XM+gNo7H9bUHUKftSa/JX+2qd1L+nGzSXObOALkgAbTkJw+Sv9tU7qX9OcqmiuFJFWqxseSBRz6M0A75FT5D4TvxeRIu9MXBINi6g5jVleQdG4HYOr8a6Bf1aFcLbw/JCkdSg9Mn8Jcz8VP8AnWFx7iD8kpnMop6SoJ67kX8bJ0SwvYW6sgBu6N/5kCZJ7z6t/jdnkM8jIDv8ePXeea216XClpVNmZVdHdLEorAsL6iwBuLkbd07hdp17Ojx/bULed4P4Bq00t8oW6gYCEq4QQ4a7Ia5QqcwQqpfFr34+Z6/GkDSKvFnCuLjjcKDTd70xTtxjlXBbFkKjWtYKGom78XprLnygMIu2Y5I13O4W7PXNqFVXRWRg6tmGUhg24gjX41a5Qp+jYUswandkpYqhp3qu9N8d6jYuUjWXEL8rMX2zOlcGaQWQpUCgYyVps1JQ71GdnZbPxl8VyCy2OK55ZwtRd/4vjUAYLcYmBNri5VSoNv2QWW5G1gBsmSL9Xr6T49koF/R4rUp1ca1HTEOMrJjezGkxINxZsSPa2EKKlgAFtMcFcD1VYGtVqOFxMb16jXduLGIYVphUAQ2WxH0r6r2K6Jv4vqtNXFmVXA3gN2C4/v0C8i6VRCo7piQqrEBGZRcKbckHCe0W69sw7h48ezOctN5hA+sUXrxMF9Piwzlwyu5Nix0wKUKviwtkcOK/emYnCi1FOauHZfC1+8i8aatXWrqq5XBU36eVi1at1t+7XRKdSxsVU7cVNiTu5XGG/fO13t5dz+xJ+Wp5XoPumw0xPLXvmuCp5SeY3xzP0n7B7x75fZufK2+UJ5a94mPldPy084e+MVTyV89h/wBZm7+SvnH4Y9m45nT6X2iecvvmradTtyXVugMt/SZ2u/kr5x+Gc6uMjNe5hfquR6o9rLETT9OQ0qi3AY06hCm1zZSTaxs1ugzAFs9usdHSenxkLTbSaKrSq/R4fo3uxwknkkZm5JNt85Muef8Afbt+qPzOwFN/1x82tzTSvXRAGqOtMEgXZgoz1AE5XP8AabVKgBVLgFrgDfbM+Nu2V3CGgPUq06qMiMgsrYX4wBmBdb4rMjKFFmW4OesgCFU4K0qykaYAyIFVuLzvgZDUcFiGYsUawsDhwjWTK4+nobWzPZ7D17u/LK2lSqqAXIFyoG7lMEHZiIHST3UJ4K0m7jjLoahdQatXjHuXJRnUA01BKHCMY5OE3FgOulcCuy8mqRUx4mYlnBIrJUCpiJ4tQFCHAB9WwOEQuou03+n2+Nes2GU149S+DEuPDcLiGLDfnka8N7Z2zNrdHnvmrSWfl6Q7qQilhUwKyKaZe1NALO2F1xhssVw2QUyxwVUFcOKiGkpBWmabGoSaYpM1Sozl3cJcAn6pIbUCB6WzriZdwdCN5OIXJt3eM7qU1Q5puxp2nEM+q3r3S5h18fSifSeKq1sSVTidSClGqwtxdNcmRSL3BGvK02HCK7ErW/0aw9aavHRLuJyy8Ut27zKxSfLv2Kv8Krl/x8dkfLhsp1j/AOJ/aPHTLuJn8Z9XnVKNP/dVv4TZx8u/dVv4TS6iW+GHOqddM/d1b9NNvHvmrcILqKVr/wCjWPqQ+PTdRH5T6c6hcFkmnchhdnIDAq1i7EXDAEZW1ybEzOsmmHKqCQQpAa2RIuAdhIuL9V55+jwBVpAU6Wk1eL5fOcFxiprTW5KEsEtyQCm8ljPSxKKJeDtJBy0kLfAeYz81cOEYnyUnlE6yb5zGhaPpZqh6lQlFeoAlkS6kAAsFD4s74eUpAAJvciX0QEREDE4aVQDrhJIzU3Fr3UhhrBGsSRMQdKp+D6n1at/v01a/mFRu2WyEx8nqjWqMNpDsGPYy5edLaJm443uNzyVUMz7UdewN/ITbx24FZRkWAJysSAeqx8eoXE1Kg5EXEz+canl/xWHft1/n7u/LK3B9JQHCXRegsoJ6B479s88GUT+qTp5K59dtfbJFKiqiyqFG4AD1SflPq/rPirVi2oMd3Ia3YSLen233CVNS0yDvdlA6+SWN+z87a0TU8eMS+WqhdFrHWaab8me/RrSw26jfLdO68H5gs7NYg4bKFuCCNmLWB9bO2d5YRNSSdRm52q2rpzo7K6DBYFXDbNoYEALY7b21XtcXkIDbEoI3o3stex6sj23nSrSvbMgg3BHpHURcfnYzjxBTOnzdtM838B+qejVlqFyYc92O6VAegjWDrE6yMGV94YbNTLf2ZdINtsyKhXJvOGrt3H0at9o2130kxMTMqERECNpyE06iqLsUYAbyVIAlYFqHXRqdV6PZ9eXkxDGWEy7UbCoP1FRuo0e7OoPGZve05cbW/wArV87R+/8Axb9A8W9DEJ+eKgx1v8tVGznUBYdFqhsfV0zP0v8Al38+mOwcvIfntMvog/PFRhq23R37Hp/H41C0BquX/wCeoPxUf6no6tcvIg/OKQrUZ0HFOtnUliaeEAHEdTls9Wo3O7OXUzENTHTMRENEREBERAREQEREBERAREQEREBERAREQEREBERAREQEREBERA4VaN7HaNTDWOr0ZHI2zmmMrk9reVsP3vJ9XfaSogRuLK83MeTu+6T6jlq1Tojhsx27x0EbDOZplc1zHkn/AKnZ1aurXNVKvmCVYZHYw6GG0a+jaN8i732lRI61LGzZHYfqt1bj0H02vJEppmImIRmIiAiIgIiICIiAiIgIiICIiAiIgIiICIiAiIgIiICIiAiIgIiICIiAiIgIiICIiAiIgJHraOGzzUjUy5Ee8dBuMhlJEQIJrFeTVAscsYHIN9jA809dxqzubTdmKWzupyAJ5XZfnZZ2169eqSCL69Uhvo5UWUBk20zaw+4Tq6jlutJSXXfTlpekX0eqb8pUe5GWYU5jd7DcaxIz6OhuCot6un8u+ddIpUzSrMgs3FsrDMW5JyZdV+zq1zB3nmj092zZfrA2xHLzX3NIyaBT1imBfIWyPo2+MhNjoFO+Y9Le/Pd7zK/hnhU0nprjpJj5xYqaigkKMNMuhYEm11LEGwwtc2j6T+ldBWQh7LbFUFgcANOqwV8+S4wMSOdlawxSuU2vDoFO3Nt2t79fR7Mpy+bqR5RQW7+rrJ8Zaq6r+kVMXU03L8Yaa070w72D3flsEw2Vrco58m2LEs5cI/pBhUMFKJxoTE2E4wukJSqFQGNssfOtkQb5EQt2uV0VNeEDcNg6T4784GjrfVfYBdvf+fqlUv6R0yTgp1agATlqn0eOoUCUsbEDGcdPPVyhbITalwjVGkYKgpiiwwixXjEqZEU3w1Gutrm4XaL5wntYNo6hkIuDjp54mz5YyAvaxzHT0656CUtQZpfXxifzDLx0dUuodvH0zERDoREQEREBERAREQEREBERAREQEREBERAREQEREBERAREQEREBERAREQERECDwmAKVVrC/FvntthJtfdIz+jZ1+709Usq9FXUqwBVgQQdRBFiD2SI3BFE609Le+HPPHaLrsAL+u+y2weodOV826vfbdfYD3nM7p3+Z6Pknz3+KG4HonWn/ACb3w58EE6NTOI4E5fOOEcv75tn29ltnRV2Ab7CwsN5tq9g75K+Y6Hkt59T4pj5ioeS38Sp8UL+V+ob6BSxhyiGoPrlQWFh5RF9V89x2A2PQUlxB8Ixag1hfoN7X6h6p3XgOgPqHz6nxR8x0PJbz6nxQcHJzmvQ6Dq5a/l3i+ZyuJXJwRRU4gpuCCLs5zGYOZ3yxh0wx1H//2Q==&quot;&gt;Resilience4j&lt;/b&gt;&lt;font style=&quot;&quot; face=&quot;Verdana&quot;&gt;&lt;br&gt;&lt;br&gt;&lt;b&gt;&lt;br&gt;* Discovering/Registring service:&lt;/b&gt;&lt;br&gt;&lt;font style=&quot;&quot;&gt;&lt;font style=&quot;font-weight: bold;&quot;&gt;&lt;font style=&quot;&quot;&gt;Allow easily each microservice to discover, managing service endpoints and facilitate routing&amp;nbsp;&lt;br&gt;&lt;/font&gt;&lt;br&gt;Tools:&lt;br&gt;&lt;/font&gt;&lt;br&gt;&amp;nbsp;- Eureka Client-Server&lt;br&gt;&lt;/font&gt;&lt;br&gt;&lt;br&gt;&lt;b&gt;* Failure:&lt;/b&gt;&lt;br&gt;Using capabilities to handle breaks and failures such as Circuit Breaker&lt;br&gt;&lt;br&gt;&lt;font style=&quot;&quot;&gt;Tools&lt;br&gt;&lt;/font&gt;&lt;/font&gt;&lt;font style=&quot;&quot;&gt;&amp;nbsp;- Resilience4j&lt;br&gt;&lt;/font&gt;&lt;font style=&quot;&quot; face=&quot;Verdana&quot;&gt;&lt;br&gt;&lt;br&gt;&lt;b&gt;4. Error Handling:&lt;/b&gt;&lt;br&gt;&lt;b&gt;• Design robust error handling mechanisms and provide informative error messages to&lt;/b&gt;&lt;br&gt;&lt;b&gt;assist users and developers.&lt;/b&gt;&lt;br&gt;&lt;br&gt;&lt;font style=&quot;&quot;&gt;&lt;font style=&quot;&quot;&gt;Implementing&lt;br&gt;* Logging system&lt;br&gt;* Customized Exception per Process&lt;br&gt;&lt;/font&gt;* Customized Logging through external service such as Splunk or Cloud Monitoring&amp;nbsp;&lt;br&gt;&lt;/font&gt;&lt;br&gt;&lt;br&gt;&lt;br&gt;&lt;br&gt;&lt;font style=&quot;font-weight: bold;&quot;&gt;Example Handling Errors: Via Messages (Mulesoft)&lt;/font&gt;&lt;br&gt;&lt;br&gt;&lt;/font&gt;&lt;b&gt;&lt;img alt=&quot;Guide: Error Handling Integration Patterns | MuleSoft Blog&quot; src=&quot;https://blogs.mulesoft.com/wp-content/uploads/img_6059cb8aa4eef.png&quot;&gt;&lt;/b&gt;&lt;font style=&quot;&quot; face=&quot;Verdana&quot;&gt;&lt;br&gt;&lt;br&gt;&lt;br&gt;&lt;b&gt;5. Data Storage:&lt;/b&gt;&lt;br&gt;&lt;b&gt;• Choose appropriate data storage mechanisms for each service (e.g., SQL, NoSQL) to&lt;/b&gt;&lt;br&gt;&lt;b&gt;handle user accounts, product information, and order data.&lt;/b&gt;&lt;br&gt;&lt;br&gt;&lt;font style=&quot;&quot;&gt;&lt;font style=&quot;&quot;&gt;Its important to know pros vs con&lt;/font&gt;s&amp;nbsp;&lt;br&gt;&lt;/font&gt;&lt;br&gt;&lt;font style=&quot;&quot;&gt;&lt;font style=&quot;&quot;&gt;To keep integrity and consistence of data&lt;br&gt;To have scalability&amp;nbsp;&lt;br&gt;To have good performance&lt;br&gt;To analyze structure and relationships among data&lt;br&gt;&lt;/font&gt;To analyze costs and estimated&lt;/font&gt;&lt;br&gt;&lt;br&gt;&lt;br&gt;&lt;font style=&quot;&quot;&gt;Based on we are in microservices environmental and needs:&lt;/font&gt;&lt;font style=&quot;&quot;&gt;&lt;br&gt;&lt;br&gt;&lt;b&gt;User: &lt;/b&gt;&lt;br&gt;Due to the user its important integrity, consistency and user management.&lt;br&gt;We could model in SQL databases.&lt;br&gt;&lt;br&gt;&lt;b&gt;Products:&lt;/b&gt;&lt;br&gt;Due to flexibility that product could have.&lt;br&gt;we could use NoSQL database: Such as Mongo&lt;br&gt;&lt;/font&gt;&lt;font style=&quot;font-weight: bold;&quot;&gt;&lt;br&gt;&lt;/font&gt;&lt;/font&gt;&lt;font face=&quot;Verdana&quot;&gt;&lt;b&gt;Orders:&lt;/b&gt;&lt;br style=&quot;border-color: var(--border-color);&quot;&gt;Due to transactions involved and scalability for performance.&lt;br style=&quot;border-color: var(--border-color);&quot;&gt;we could use NoSQL database: Such as Cassandra&lt;/font&gt;&lt;font style=&quot;&quot; face=&quot;Verdana&quot;&gt;&lt;br&gt;&lt;br&gt;&lt;br&gt;&lt;br&gt;&lt;b&gt;6. Authentication and Authorization&lt;/b&gt;&lt;br&gt;&lt;b&gt;• Explain how to implement secure authentication and authorization mechanisms.&lt;/b&gt;&lt;br&gt;&lt;br&gt;Important each microservice is secured and each transaction is authenticated:&lt;br&gt;&lt;br&gt;&lt;br&gt;Through service providers we could handle authorization and authentication:&lt;br&gt;&lt;br&gt;* JWT&lt;br&gt;* OAuth&lt;br&gt;* Own Mechanism of Authorization and Authorization&lt;br&gt;* Data encode (Between process)&lt;br&gt;* Each endpoint must be authorized to make process (Tokens)&lt;br&gt;* Roles&lt;br&gt;&lt;br&gt;&lt;br&gt;&lt;b&gt;------------------------------------------------------------------------------------------------&lt;/b&gt;&lt;br&gt;&lt;br&gt;&lt;div style=&quot;font-weight: bold;&quot;&gt;Non-functional requirements&lt;/div&gt;&lt;div style=&quot;font-weight: bold;&quot;&gt;§ 100+ million transactions per day:&lt;/div&gt;&lt;div style=&quot;font-weight: bold;&quot;&gt;§ Response time &amp;lt;= 300ms&lt;/div&gt;&lt;div style=&quot;font-weight: bold;&quot;&gt;§ 99,99% availability&lt;/div&gt;&lt;div style=&quot;font-weight: bold;&quot;&gt;§ Auto-scaling&lt;/div&gt;&lt;div style=&quot;font-weight: bold;&quot;&gt;§ DRP (multi-region)&lt;/div&gt;&lt;div style=&quot;font-weight: bold;&quot;&gt;§ Duration: The Product Owner is requiring this component in 4 sprints&lt;/div&gt;&lt;div style=&quot;font-weight: bold;&quot;&gt;&lt;br&gt;&lt;/div&gt;&lt;div style=&quot;&quot;&gt;&lt;br&gt;&lt;/div&gt;&lt;div style=&quot;&quot;&gt;Creating an architecture whose capabilities be able to reduce in smaller&lt;/div&gt;&lt;div style=&quot;&quot;&gt;&lt;span style=&quot;background-color: initial;&quot;&gt;services and easy to deploy, with that we can define some aspects:&lt;/span&gt;&lt;/div&gt;&lt;div style=&quot;&quot;&gt;&lt;br&gt;&lt;/div&gt;&lt;div style=&quot;&quot;&gt;* Cache managing (Redis)&lt;/div&gt;&lt;div style=&quot;&quot;&gt;&lt;br&gt;&lt;/div&gt;&lt;div style=&quot;&quot;&gt;* Elastic computing (EC2 Kubernetes)&lt;/div&gt;&lt;div style=&quot;&quot;&gt;&lt;br&gt;&lt;/div&gt;&lt;div style=&quot;&quot;&gt;* Load Balancers&lt;/div&gt;&lt;div style=&quot;&quot;&gt;&lt;br&gt;&lt;/div&gt;&lt;div style=&quot;&quot;&gt;* Compliance Security (IAM - Regulations)&lt;/div&gt;&lt;div style=&quot;&quot;&gt;&lt;br&gt;&lt;/div&gt;&lt;div style=&quot;&quot;&gt;* Autoscaling&lt;/div&gt;&lt;div style=&quot;&quot;&gt;&lt;br&gt;&lt;/div&gt;&lt;div style=&quot;&quot;&gt;* Multiregion (We can create Recoveries Plan)&lt;/div&gt;&lt;div style=&quot;&quot;&gt;&lt;br&gt;&lt;/div&gt;&lt;div style=&quot;&quot;&gt;* Ensure traffic route&lt;/div&gt;&lt;div style=&quot;&quot;&gt;&lt;br&gt;&lt;/div&gt;&lt;div style=&quot;&quot;&gt;* Backups&lt;/div&gt;&lt;div style=&quot;&quot;&gt;&lt;br&gt;&lt;/div&gt;&lt;div style=&quot;&quot;&gt;* Serverless Computing&amp;nbsp;&lt;/div&gt;&lt;div style=&quot;font-weight: bold;&quot;&gt;&lt;br&gt;&lt;/div&gt;&lt;div style=&quot;font-weight: bold;&quot;&gt;&lt;br&gt;&lt;/div&gt;&lt;div style=&quot;font-weight: bold;&quot;&gt;&lt;br&gt;&lt;/div&gt;&lt;div style=&quot;font-weight: bold;&quot;&gt;&lt;span style=&quot;background-color: initial;&quot;&gt;&lt;br&gt;&lt;/span&gt;&lt;/div&gt;&lt;div style=&quot;font-weight: bold;&quot;&gt;&lt;span style=&quot;background-color: initial;&quot;&gt;&amp;nbsp;&lt;/span&gt;&lt;/div&gt;&lt;/font&gt;&lt;/font&gt;" style="text;whiteSpace=wrap;html=1;" vertex="1" parent="1">
          <mxGeometry x="-1180" y="-660" width="1410" height="4340" as="geometry" />
        </mxCell>
        <mxCell id="sAu4fY9SS1ZiHfCq4KFP-64" value="&lt;font style=&quot;font-size: 14px;&quot; face=&quot;Verdana&quot;&gt;&lt;span style=&quot;color: rgb(0, 0, 0); font-style: normal; font-variant-ligatures: normal; font-variant-caps: normal; letter-spacing: normal; orphans: 2; text-align: left; text-indent: 0px; text-transform: none; widows: 2; word-spacing: 0px; -webkit-text-stroke-width: 0px; background-color: rgb(251, 251, 251); text-decoration-thickness: initial; text-decoration-style: initial; text-decoration-color: initial; float: none; display: inline !important;&quot;&gt;&lt;b&gt;1. Microservices Architecture:&lt;/b&gt;&lt;br&gt;&lt;/span&gt;&lt;br style=&quot;border-color: var(--border-color); color: rgb(0, 0, 0); font-style: normal; font-variant-ligatures: normal; font-variant-caps: normal; font-weight: 400; letter-spacing: normal; orphans: 2; text-align: left; text-indent: 0px; text-transform: none; widows: 2; word-spacing: 0px; -webkit-text-stroke-width: 0px; background-color: rgb(251, 251, 251); text-decoration-thickness: initial; text-decoration-style: initial; text-decoration-color: initial;&quot;&gt;&lt;span style=&quot;color: rgb(0, 0, 0); font-style: normal; font-variant-ligatures: normal; font-variant-caps: normal; letter-spacing: normal; orphans: 2; text-align: left; text-indent: 0px; text-transform: none; widows: 2; word-spacing: 0px; -webkit-text-stroke-width: 0px; background-color: rgb(251, 251, 251); text-decoration-thickness: initial; text-decoration-style: initial; text-decoration-color: initial; float: none; display: inline !important;&quot;&gt;• Design each microservice to focus on its designated responsibilities, adhering to a&lt;/span&gt;&lt;br style=&quot;border-color: var(--border-color); color: rgb(0, 0, 0); font-style: normal; font-variant-ligatures: normal; font-variant-caps: normal; letter-spacing: normal; orphans: 2; text-align: left; text-indent: 0px; text-transform: none; widows: 2; word-spacing: 0px; -webkit-text-stroke-width: 0px; background-color: rgb(251, 251, 251); text-decoration-thickness: initial; text-decoration-style: initial; text-decoration-color: initial;&quot;&gt;&lt;span style=&quot;color: rgb(0, 0, 0); font-style: normal; font-variant-ligatures: normal; font-variant-caps: normal; letter-spacing: normal; orphans: 2; text-align: left; text-indent: 0px; text-transform: none; widows: 2; word-spacing: 0px; -webkit-text-stroke-width: 0px; background-color: rgb(251, 251, 251); text-decoration-thickness: initial; text-decoration-style: initial; text-decoration-color: initial; float: none; display: inline !important;&quot;&gt;loosely coupled architecture for better maintainability.&lt;/span&gt;&lt;br style=&quot;border-color: var(--border-color); color: rgb(0, 0, 0); font-style: normal; font-variant-ligatures: normal; font-variant-caps: normal; letter-spacing: normal; orphans: 2; text-align: left; text-indent: 0px; text-transform: none; widows: 2; word-spacing: 0px; -webkit-text-stroke-width: 0px; background-color: rgb(251, 251, 251); text-decoration-thickness: initial; text-decoration-style: initial; text-decoration-color: initial;&quot;&gt;&lt;span style=&quot;color: rgb(0, 0, 0); font-style: normal; font-variant-ligatures: normal; font-variant-caps: normal; letter-spacing: normal; orphans: 2; text-align: left; text-indent: 0px; text-transform: none; widows: 2; word-spacing: 0px; -webkit-text-stroke-width: 0px; background-color: rgb(251, 251, 251); text-decoration-thickness: initial; text-decoration-style: initial; text-decoration-color: initial; float: none; display: inline !important;&quot;&gt;• Ensure the microservices can communicate efficiently and securely with each other.&lt;/span&gt;&lt;/font&gt;" style="text;whiteSpace=wrap;html=1;" vertex="1" parent="1">
          <mxGeometry x="-1180" y="-1210" width="490" height="120" as="geometry" />
        </mxCell>
        <mxCell id="sAu4fY9SS1ZiHfCq4KFP-75" style="edgeStyle=orthogonalEdgeStyle;rounded=0;orthogonalLoop=1;jettySize=auto;html=1;entryX=0;entryY=0.5;entryDx=0;entryDy=0;" edge="1" parent="1" source="sAu4fY9SS1ZiHfCq4KFP-70" target="sAu4fY9SS1ZiHfCq4KFP-7">
          <mxGeometry relative="1" as="geometry" />
        </mxCell>
        <mxCell id="sAu4fY9SS1ZiHfCq4KFP-76" style="edgeStyle=orthogonalEdgeStyle;rounded=0;orthogonalLoop=1;jettySize=auto;html=1;entryX=0;entryY=0.5;entryDx=0;entryDy=0;" edge="1" parent="1" source="sAu4fY9SS1ZiHfCq4KFP-70" target="sAu4fY9SS1ZiHfCq4KFP-9">
          <mxGeometry relative="1" as="geometry" />
        </mxCell>
        <mxCell id="sAu4fY9SS1ZiHfCq4KFP-77" style="edgeStyle=orthogonalEdgeStyle;rounded=0;orthogonalLoop=1;jettySize=auto;html=1;entryX=0;entryY=0.5;entryDx=0;entryDy=0;" edge="1" parent="1" source="sAu4fY9SS1ZiHfCq4KFP-70" target="sAu4fY9SS1ZiHfCq4KFP-10">
          <mxGeometry relative="1" as="geometry" />
        </mxCell>
        <mxCell id="sAu4fY9SS1ZiHfCq4KFP-70" value="" style="outlineConnect=0;dashed=0;verticalLabelPosition=bottom;verticalAlign=top;align=center;html=1;shape=mxgraph.aws3.api_gateway;fillColor=#D9A741;gradientColor=none;" vertex="1" parent="1">
          <mxGeometry x="-1180" y="-905.5" width="70" height="63" as="geometry" />
        </mxCell>
        <mxCell id="sAu4fY9SS1ZiHfCq4KFP-85" style="edgeStyle=orthogonalEdgeStyle;rounded=0;orthogonalLoop=1;jettySize=auto;html=1;entryX=1;entryY=0.5;entryDx=0;entryDy=0;" edge="1" parent="1" source="sAu4fY9SS1ZiHfCq4KFP-82" target="sAu4fY9SS1ZiHfCq4KFP-12">
          <mxGeometry relative="1" as="geometry" />
        </mxCell>
        <mxCell id="sAu4fY9SS1ZiHfCq4KFP-82" value="" style="shape=cylinder3;whiteSpace=wrap;html=1;boundedLbl=1;backgroundOutline=1;size=15;" vertex="1" parent="1">
          <mxGeometry x="-450" y="-1020" width="32.25" height="50" as="geometry" />
        </mxCell>
        <mxCell id="sAu4fY9SS1ZiHfCq4KFP-86" style="edgeStyle=orthogonalEdgeStyle;rounded=0;orthogonalLoop=1;jettySize=auto;html=1;entryX=0;entryY=0.5;entryDx=0;entryDy=0;entryPerimeter=0;" edge="1" parent="1" source="sAu4fY9SS1ZiHfCq4KFP-12" target="sAu4fY9SS1ZiHfCq4KFP-82">
          <mxGeometry relative="1" as="geometry" />
        </mxCell>
        <mxCell id="sAu4fY9SS1ZiHfCq4KFP-90" value="" style="image;sketch=0;aspect=fixed;html=1;points=[];align=center;fontSize=12;image=img/lib/mscae/Cache_Redis_Product.svg;" vertex="1" parent="1">
          <mxGeometry x="-950" y="3290" width="47.62" height="40" as="geometry" />
        </mxCell>
        <mxCell id="sAu4fY9SS1ZiHfCq4KFP-91" value="" style="sketch=0;points=[[0,0,0],[0.25,0,0],[0.5,0,0],[0.75,0,0],[1,0,0],[0,1,0],[0.25,1,0],[0.5,1,0],[0.75,1,0],[1,1,0],[0,0.25,0],[0,0.5,0],[0,0.75,0],[1,0.25,0],[1,0.5,0],[1,0.75,0]];outlineConnect=0;fontColor=#232F3E;gradientColor=#F78E04;gradientDirection=north;fillColor=#D05C17;strokeColor=#ffffff;dashed=0;verticalLabelPosition=bottom;verticalAlign=top;align=center;html=1;fontSize=12;fontStyle=0;aspect=fixed;shape=mxgraph.aws4.resourceIcon;resIcon=mxgraph.aws4.eks;" vertex="1" parent="1">
          <mxGeometry x="-850" y="3320" width="40" height="40" as="geometry" />
        </mxCell>
        <mxCell id="sAu4fY9SS1ZiHfCq4KFP-92" value="" style="image;aspect=fixed;html=1;points=[];align=center;fontSize=12;image=img/lib/azure2/networking/Load_Balancers.svg;" vertex="1" parent="1">
          <mxGeometry x="-1020" y="3360" width="40" height="40" as="geometry" />
        </mxCell>
        <mxCell id="sAu4fY9SS1ZiHfCq4KFP-93" value="" style="outlineConnect=0;dashed=0;verticalLabelPosition=bottom;verticalAlign=top;align=center;html=1;shape=mxgraph.aws3.iam;fillColor=#759C3E;gradientColor=none;" vertex="1" parent="1">
          <mxGeometry x="-820" y="3400" width="30" height="40" as="geometry" />
        </mxCell>
        <mxCell id="sAu4fY9SS1ZiHfCq4KFP-94" value="" style="verticalLabelPosition=bottom;html=1;verticalAlign=top;align=center;strokeColor=none;fillColor=#00BEF2;shape=mxgraph.azure.autoscale;" vertex="1" parent="1">
          <mxGeometry x="-1060" y="3440" width="40" height="30" as="geometry" />
        </mxCell>
        <mxCell id="sAu4fY9SS1ZiHfCq4KFP-95" value="" style="sketch=0;outlineConnect=0;fontColor=#232F3E;gradientColor=none;fillColor=#3F8624;strokeColor=none;dashed=0;verticalLabelPosition=bottom;verticalAlign=top;align=center;html=1;fontSize=12;fontStyle=0;aspect=fixed;pointerEvents=1;shape=mxgraph.aws4.s3_multi_region_access_points;" vertex="1" parent="1">
          <mxGeometry x="-790" y="3480" width="38.97" height="40" as="geometry" />
        </mxCell>
        <mxCell id="sAu4fY9SS1ZiHfCq4KFP-96" value="" style="outlineConnect=0;dashed=0;verticalLabelPosition=bottom;verticalAlign=top;align=center;html=1;shape=mxgraph.aws3.route_53;fillColor=#F58536;gradientColor=none;" vertex="1" parent="1">
          <mxGeometry x="-990" y="3520" width="50" height="30" as="geometry" />
        </mxCell>
        <mxCell id="sAu4fY9SS1ZiHfCq4KFP-97" value="" style="sketch=0;points=[[0,0,0],[0.25,0,0],[0.5,0,0],[0.75,0,0],[1,0,0],[0,1,0],[0.25,1,0],[0.5,1,0],[0.75,1,0],[1,1,0],[0,0.25,0],[0,0.5,0],[0,0.75,0],[1,0.25,0],[1,0.5,0],[1,0.75,0]];outlineConnect=0;fontColor=#232F3E;gradientColor=#60A337;gradientDirection=north;fillColor=#277116;strokeColor=#ffffff;dashed=0;verticalLabelPosition=bottom;verticalAlign=top;align=center;html=1;fontSize=12;fontStyle=0;aspect=fixed;shape=mxgraph.aws4.resourceIcon;resIcon=mxgraph.aws4.backup;" vertex="1" parent="1">
          <mxGeometry x="-1080" y="3560" width="30" height="30" as="geometry" />
        </mxCell>
        <mxCell id="sAu4fY9SS1ZiHfCq4KFP-98" value="" style="sketch=0;points=[[0,0,0],[0.25,0,0],[0.5,0,0],[0.75,0,0],[1,0,0],[0,1,0],[0.25,1,0],[0.5,1,0],[0.75,1,0],[1,1,0],[0,0.25,0],[0,0.5,0],[0,0.75,0],[1,0.25,0],[1,0.5,0],[1,0.75,0]];outlineConnect=0;fontColor=#232F3E;gradientColor=#F78E04;gradientDirection=north;fillColor=#D05C17;strokeColor=#ffffff;dashed=0;verticalLabelPosition=bottom;verticalAlign=top;align=center;html=1;fontSize=12;fontStyle=0;aspect=fixed;shape=mxgraph.aws4.resourceIcon;resIcon=mxgraph.aws4.serverless_application_repository;" vertex="1" parent="1">
          <mxGeometry x="-975" y="3600" width="35" height="35" as="geometry" />
        </mxCell>
      </root>
    </mxGraphModel>
  </diagram>
</mxfile>
